PathFileType	4	(X/Y/Z)	D:\TRACE\spot_10-12-23\spot_arm_body_motion_2_1-platform.trc
DataRate	CameraRate	NumFrames	NumMarkers	Units	OrigDataRate	OrigDataStartFrame	OrigNumFrames
100.00	100.00	      36	5	mm	100.00	3501	      7000
Frame#	Time	Left_Front			Right_Front			Left_Aft			Right_Aft			Post			
		X1	Y1	Z1	X2	Y2	Z2	X3	Y3	Z3	X4	Y4	Z4	X5	Y5	Z5	

3501	35.000	-756.57635	72.46501	-633.74518	811.11230	70.04366	-609.39526	-687.59076	-30.72901	500.20483	719.52942	-40.18974	601.96375	30.75640	826.45624	-876.14252	
3502	35.010	-757.52911	71.87273	-634.05719	809.64618	68.93276	-609.86505	-688.46777	-30.27249	500.13409	718.75043	-39.51765	601.85767	29.74670	825.76056	-876.77618	
3503	35.020	-758.32629	71.41522	-634.22412	808.93225	68.56106	-609.96661	-689.33990	-29.85295	499.95898	717.93781	-38.98446	601.80109	28.81901	824.98212	-877.35236	
3504	35.030	-759.32050	70.82354	-634.37488	808.03174	68.07270	-610.19147	-690.47345	-29.38489	499.81839	716.79712	-38.51361	601.64569	27.86154	824.00385	-878.09155	
3505	35.040	-760.33398	70.05693	-634.77765	807.04755	67.36902	-610.36761	-691.35083	-28.87618	499.70569	715.74249	-38.14643	601.54486	26.67354	823.15741	-878.92737	
3506	35.050	-761.27441	69.34385	-634.95923	806.20398	66.70642	-610.54071	-692.38995	-28.46230	499.45148	714.82410	-37.47662	601.40021	25.78835	822.06805	-879.73627	
3507	35.060	-762.20239	68.49921	-635.13727	805.26337	66.11184	-610.79730	-693.43463	-28.08845	499.52060	713.88452	-36.75594	601.22760	25.08495	821.29144	-881.06610	
3508	35.070	-763.19244	67.95162	-635.40039	804.21680	65.46387	-611.14893	-694.26068	-27.31254	499.22971	712.98157	-35.90081	600.91418	24.09653	820.09833	-882.34717	
3509	35.080	-764.40118	67.32381	-635.78192	803.17731	64.68047	-611.45490	-695.36530	-26.81591	499.11618	712.09210	-35.47453	601.05725	22.86162	819.14270	-883.47852	
3510	35.090	-765.29962	66.37564	-635.94855	802.25616	63.81316	-611.63904	-696.26190	-26.35062	498.99057	710.86774	-34.81256	600.84650	6.86643	751.58124	-901.15497	
3511	35.100	-766.24127	65.39061	-636.26733	801.20740	62.61647	-611.88055	-697.39795	-25.66858	498.73788	709.92914	-34.15497	600.67682	21.02542	816.62347	-886.33313	
3512	35.110	-767.23224	64.62601	-636.60693	800.32910	62.15981	-612.16998	-698.24982	-25.14915	498.70697	708.99976	-33.35982	600.53925	20.02302	815.58527	-887.92401	
3513	35.120	-768.27765	63.71329	-636.92365	799.23346	61.27655	-612.60626	-699.31848	-24.36898	498.51352	707.96277	-32.55550	600.32178	19.03452	814.37714	-889.58594	
3514	35.130	-769.37091	62.84398	-637.03058	798.13983	60.37995	-612.84686	-700.35406	-23.66075	498.25006	706.89581	-31.74311	600.09650	17.85962	813.10150	-890.84869	
3515	35.140	-770.45685	62.01464	-637.57056	797.14142	59.45642	-613.11304	-701.46442	-23.04628	498.07996	705.72021	-30.99846	599.84589	16.65362	811.85522	-892.53705	
3516	35.150	-771.62537	61.02443	-637.83521	795.94897	58.41162	-613.39044	-702.61151	-22.42954	497.80881	704.64557	-30.32464	599.68622	15.52263	810.79199	-894.09125	
3517	35.160	-772.46051	59.71140	-638.09949	794.85028	57.46939	-613.81714	-703.60547	-21.87245	497.66495	703.57239	-29.47610	599.58405	14.42966	809.38007	-895.47632	
3518	35.170	-773.57153	58.74012	-638.37689	793.78241	56.48151	-614.15491	-704.68182	-21.04692	497.47162	702.52106	-28.58730	599.25165	13.51225	807.77979	-896.70703	
3519	35.180	-774.78021	58.10625	-638.96899	792.84998	55.52387	-614.43201	-705.82745	-20.24521	497.34998	701.35919	-27.79234	598.90381	12.72693	806.11096	-897.79974	
3520	35.190	-775.79639	56.84916	-639.13916	791.73804	54.35443	-614.73804	-707.00427	-19.50209	497.09024	700.25006	-26.96869	598.96594	11.57542	804.43768	-898.96893	
3521	35.200	-776.82111	55.62707	-639.33344	790.55310	53.22407	-615.20209	-707.92670	-18.69284	496.84653	699.07043	-26.07868	598.65363	10.39292	803.01526	-900.66638	
3522	35.210	-778.16278	54.59496	-639.84943	789.47400	52.03028	-615.51477	-709.21143	-18.06580	496.41278	697.94720	-25.18401	598.45734	9.44228	801.53760	-901.99933	
3523	35.220	-779.12347	53.56580	-640.27185	788.31342	51.10059	-615.85162	-710.28125	-17.20287	496.27112	696.95093	-24.13636	598.28839	8.53924	799.95984	-903.58502	
3524	35.230	-780.18634	52.42368	-640.44775	787.27313	49.99578	-616.12762	-711.34955	-16.34019	495.93069	695.79932	-23.26928	597.96826	7.36104	798.34680	-905.42529	
3525	35.240	-781.35553	51.22111	-640.97375	786.05804	48.88128	-616.59760	-712.31396	-15.45969	495.74939	694.77380	-22.21527	597.73346	5.90195	796.74066	-907.23956	
3526	35.250	-782.56329	50.17352	-641.31757	785.00165	47.52736	-616.90936	-713.68726	-14.70257	495.54449	693.54749	-21.29111	597.06622	4.99057	795.09540	-908.95068	
3527	35.260	-783.54468	48.93664	-641.62207	783.99585	46.55247	-617.23779	-714.67548	-13.85057	495.27618	692.55444	-20.39435	597.29346	4.07111	793.37720	-910.80566	
3528	35.270	-784.64825	47.48787	-641.93829	782.81396	45.13257	-617.59375	-715.72931	-13.14021	495.03860	691.37183	-19.31158	596.86896	2.92523	791.64740	-912.56451	
3529	35.280	-785.80585	46.44871	-642.58472	781.69446	44.11717	-618.15680	-716.86823	-12.08722	494.93152	690.28021	-18.21057	596.80286	1.69514	789.80469	-914.58252	
3530	35.290	-786.96362	45.40747	-642.74103	780.49060	42.71909	-618.39905	-718.11609	-11.20679	494.56985	689.25763	-17.10972	596.60773	0.81394	788.01007	-916.50299	
3531	35.300	-788.09583	43.83741	-643.08099	779.46716	41.62822	-618.76801	-719.12378	-10.23590	494.32523	688.25061	-16.08954	596.38086	-0.23621	786.20496	-918.19641	
3532	35.310	-789.33411	42.55583	-643.74268	778.21777	40.16983	-619.11053	-720.46484	-9.44256	494.03900	686.88605	-15.03930	596.12555	-1.69689	784.29364	-919.84821	
3533	35.320	-790.42737	41.29060	-643.98383	776.96216	38.87314	-619.59149	-721.52222	-8.55685	493.62653	685.59827	-13.99916	595.57678	-2.57576	782.38470	-921.89978	
3534	35.330	-791.47888	39.99786	-644.24097	775.94879	37.59762	-619.96973	-722.64362	-7.50433	493.30124	684.69055	-12.94583	595.29370	-4.04521	780.61633	-923.56635	
3535	35.340	-792.71692	38.66122	-644.71320	774.89020	36.26846	-620.29456	-723.52472	-6.63401	492.96884	683.55377	-11.86977	595.13953	-4.73376	778.75018	-925.47516	
3536	35.350	-793.79999	37.41480	-645.24579	773.78485	34.89675	-620.70325	-724.84900	-5.58441	492.62418	682.54266	-10.63908	594.89807	-5.73990	776.79156	-927.34717	
